<mxfile host="app.diagrams.net" agent="Mozilla/5.0 (Windows NT 10.0; Win64; x64) AppleWebKit/537.36 (KHTML, like Gecko) Chrome/129.0.0.0 Safari/537.36" version="24.7.17">
  <diagram name="Page-1" id="6gZYOWQzuK1AjyAhaMBb">
    <mxGraphModel dx="1900" dy="583" grid="1" gridSize="10" guides="1" tooltips="1" connect="1" arrows="1" fold="1" page="1" pageScale="1" pageWidth="850" pageHeight="1100" math="0" shadow="0">
      <root>
        <mxCell id="0" />
        <mxCell id="1" parent="0" />
        <mxCell id="DKwnddO4yJNAFo_Fo-A2-1" value="" style="rounded=0;whiteSpace=wrap;html=1;" parent="1" vertex="1">
          <mxGeometry x="280" y="40" width="400" height="230" as="geometry" />
        </mxCell>
        <mxCell id="DKwnddO4yJNAFo_Fo-A2-2" value="" style="html=1;verticalLabelPosition=bottom;align=center;labelBackgroundColor=#ffffff;verticalAlign=top;strokeWidth=2;strokeColor=#0080F0;shadow=0;dashed=0;shape=mxgraph.ios7.icons.home;" parent="1" vertex="1">
          <mxGeometry x="290" y="50" width="24" height="25.5" as="geometry" />
        </mxCell>
        <mxCell id="DKwnddO4yJNAFo_Fo-A2-3" value="" style="sketch=0;aspect=fixed;pointerEvents=1;shadow=0;dashed=0;html=1;strokeColor=none;labelPosition=center;verticalLabelPosition=bottom;verticalAlign=top;align=center;fillColor=#00188D;shape=mxgraph.azure.laptop" parent="1" vertex="1">
          <mxGeometry x="450" y="75.5" width="50" height="30" as="geometry" />
        </mxCell>
        <mxCell id="DKwnddO4yJNAFo_Fo-A2-4" value="" style="html=1;verticalLabelPosition=bottom;align=center;labelBackgroundColor=#ffffff;verticalAlign=top;strokeWidth=2;strokeColor=#0080F0;shadow=0;dashed=0;shape=mxgraph.ios7.icons.smartphone;" parent="1" vertex="1">
          <mxGeometry x="466" y="170" width="34" height="50" as="geometry" />
        </mxCell>
        <mxCell id="DKwnddO4yJNAFo_Fo-A2-5" value="" style="image;html=1;image=img/lib/clip_art/networking/Wireless_Router_N_128x128.png" parent="1" vertex="1">
          <mxGeometry x="234" y="115" width="80" height="80" as="geometry" />
        </mxCell>
        <mxCell id="DKwnddO4yJNAFo_Fo-A2-6" style="edgeStyle=orthogonalEdgeStyle;rounded=0;orthogonalLoop=1;jettySize=auto;html=1;entryX=0.08;entryY=0.5;entryDx=0;entryDy=0;entryPerimeter=0;" parent="1" source="DKwnddO4yJNAFo_Fo-A2-5" target="DKwnddO4yJNAFo_Fo-A2-3" edge="1">
          <mxGeometry relative="1" as="geometry">
            <Array as="points">
              <mxPoint x="274" y="91" />
              <mxPoint x="390" y="91" />
            </Array>
          </mxGeometry>
        </mxCell>
        <mxCell id="DKwnddO4yJNAFo_Fo-A2-7" style="edgeStyle=orthogonalEdgeStyle;rounded=0;orthogonalLoop=1;jettySize=auto;html=1;entryX=0.133;entryY=0.907;entryDx=0;entryDy=0;entryPerimeter=0;" parent="1" source="DKwnddO4yJNAFo_Fo-A2-5" target="DKwnddO4yJNAFo_Fo-A2-4" edge="1">
          <mxGeometry relative="1" as="geometry" />
        </mxCell>
        <mxCell id="DKwnddO4yJNAFo_Fo-A2-9" style="edgeStyle=orthogonalEdgeStyle;rounded=0;orthogonalLoop=1;jettySize=auto;html=1;" parent="1" source="DKwnddO4yJNAFo_Fo-A2-8" edge="1">
          <mxGeometry relative="1" as="geometry">
            <mxPoint x="230" y="160" as="targetPoint" />
          </mxGeometry>
        </mxCell>
        <mxCell id="DKwnddO4yJNAFo_Fo-A2-8" value="&lt;b&gt;ISP&lt;/b&gt;" style="rhombus;whiteSpace=wrap;html=1;" parent="1" vertex="1">
          <mxGeometry x="10" y="120" width="80" height="80" as="geometry" />
        </mxCell>
        <mxCell id="DKwnddO4yJNAFo_Fo-A2-10" value="&lt;b&gt;External IP&lt;/b&gt;" style="text;html=1;align=center;verticalAlign=middle;resizable=0;points=[];autosize=1;strokeColor=none;fillColor=none;" parent="1" vertex="1">
          <mxGeometry x="160" y="170" width="90" height="30" as="geometry" />
        </mxCell>
        <mxCell id="DKwnddO4yJNAFo_Fo-A2-11" value="&lt;b&gt;192..168.1.0&lt;/b&gt;" style="text;html=1;align=center;verticalAlign=middle;resizable=0;points=[];autosize=1;strokeColor=none;fillColor=none;" parent="1" vertex="1">
          <mxGeometry x="280" y="190" width="90" height="30" as="geometry" />
        </mxCell>
        <mxCell id="DKwnddO4yJNAFo_Fo-A2-12" value="&lt;b&gt;192..168.1.1&lt;/b&gt;" style="text;html=1;align=center;verticalAlign=middle;resizable=0;points=[];autosize=1;strokeColor=none;fillColor=none;" parent="1" vertex="1">
          <mxGeometry x="500" y="70" width="90" height="30" as="geometry" />
        </mxCell>
        <mxCell id="DKwnddO4yJNAFo_Fo-A2-13" value="&lt;b&gt;192..168.1.2&lt;/b&gt;" style="text;html=1;align=center;verticalAlign=middle;resizable=0;points=[];autosize=1;strokeColor=none;fillColor=none;" parent="1" vertex="1">
          <mxGeometry x="500" y="170" width="90" height="30" as="geometry" />
        </mxCell>
        <mxCell id="DKwnddO4yJNAFo_Fo-A2-14" value="" style="rounded=0;whiteSpace=wrap;html=1;" parent="1" vertex="1">
          <mxGeometry x="280" y="420" width="400" height="220" as="geometry" />
        </mxCell>
        <mxCell id="DKwnddO4yJNAFo_Fo-A2-18" style="edgeStyle=orthogonalEdgeStyle;rounded=0;orthogonalLoop=1;jettySize=auto;html=1;" parent="1" source="DKwnddO4yJNAFo_Fo-A2-15" target="DKwnddO4yJNAFo_Fo-A2-16" edge="1">
          <mxGeometry relative="1" as="geometry" />
        </mxCell>
        <mxCell id="DKwnddO4yJNAFo_Fo-A2-15" value="&lt;b&gt;docker:0&lt;/b&gt;" style="ellipse;whiteSpace=wrap;html=1;aspect=fixed;fillColor=#d5e8d4;strokeColor=#82b366;" parent="1" vertex="1">
          <mxGeometry x="350" y="490" width="60" height="60" as="geometry" />
        </mxCell>
        <mxCell id="DKwnddO4yJNAFo_Fo-A2-16" value="&lt;b&gt;172.17.0.2&lt;/b&gt;" style="ellipse;whiteSpace=wrap;html=1;aspect=fixed;fillColor=#dae8fc;strokeColor=#6c8ebf;" parent="1" vertex="1">
          <mxGeometry x="550" y="430" width="80" height="80" as="geometry" />
        </mxCell>
        <mxCell id="DKwnddO4yJNAFo_Fo-A2-17" value="&lt;b&gt;172.17.0.1&lt;/b&gt;" style="text;html=1;align=center;verticalAlign=middle;resizable=0;points=[];autosize=1;strokeColor=none;fillColor=none;" parent="1" vertex="1">
          <mxGeometry x="340" y="460" width="80" height="30" as="geometry" />
        </mxCell>
        <mxCell id="ZcTkTLIty2KIgGoeOGZj-1" value="" style="rounded=1;whiteSpace=wrap;html=1;" vertex="1" parent="1">
          <mxGeometry x="273" y="740" width="420" height="260" as="geometry" />
        </mxCell>
        <mxCell id="ZcTkTLIty2KIgGoeOGZj-2" value="&lt;b&gt;Docker Host&lt;/b&gt;" style="text;html=1;align=center;verticalAlign=middle;resizable=0;points=[];autosize=1;strokeColor=none;fillColor=none;" vertex="1" parent="1">
          <mxGeometry x="460" y="740" width="90" height="30" as="geometry" />
        </mxCell>
        <mxCell id="ZcTkTLIty2KIgGoeOGZj-5" style="edgeStyle=orthogonalEdgeStyle;rounded=0;orthogonalLoop=1;jettySize=auto;html=1;" edge="1" parent="1" source="ZcTkTLIty2KIgGoeOGZj-3">
          <mxGeometry relative="1" as="geometry">
            <mxPoint x="90" y="865" as="targetPoint" />
          </mxGeometry>
        </mxCell>
        <mxCell id="ZcTkTLIty2KIgGoeOGZj-3" value="" style="editableCssRules=.*;html=1;shape=image;verticalLabelPosition=bottom;labelBackgroundColor=#ffffff;verticalAlign=top;aspect=fixed;imageAspect=0;image=data:image/svg+xml,PHN2ZyB4bWxucz0iaHR0cDovL3d3dy53My5vcmcvMjAwMC9zdmciIHhtbG5zOnY9Imh0dHBzOi8vdmVjdGEuaW8vbmFubyIgd2lkdGg9IjIwIiBoZWlnaHQ9IjE4IiBmaWxsLXJ1bGU9ImV2ZW5vZGQiIHZpZXdCb3g9IjAgMCAyMCAxOCI+JiN4YTsJPHN0eWxlIHR5cGU9InRleHQvY3NzIj4mI3hhOwkuc3Qwe2ZpbGw6IzQyODVmNDt9JiN4YTsJLnN0MXtmaWxsOiM2NjlkZjY7fSYjeGE7CS5zdDJ7ZmlsbDojYWVjYmZhO30mI3hhOwk8L3N0eWxlPiYjeGE7CTxwYXRoIGNsYXNzPSJzdDAiIGQ9Ik00IDhIMHYyaDR6Ii8+JiN4YTsJPHBhdGggY2xhc3M9InN0MiIgZD0iTTMgNGgxMHYxMEgzeiIvPiYjeGE7CTxwYXRoIGNsYXNzPSJzdDAiIGQ9Ik0yMCA4aC00LjY3djJIMjB6Ii8+JiN4YTsJPHBhdGggY2xhc3M9InN0MSIgZD0iTTE1IDJ2MTRINnYyaDExdi0yVjIgMEg2djJ6TTggNGg1djEwSDh6Ii8+JiN4YTs8L3N2Zz4=;fontColor=default;" vertex="1" parent="1">
          <mxGeometry x="250" y="840" width="55.56" height="50" as="geometry" />
        </mxCell>
        <mxCell id="ZcTkTLIty2KIgGoeOGZj-6" value="&lt;b&gt;AWS ISP&lt;/b&gt;" style="ellipse;whiteSpace=wrap;html=1;fillColor=#dae8fc;strokeColor=#6c8ebf;" vertex="1" parent="1">
          <mxGeometry x="-30" y="825" width="120" height="80" as="geometry" />
        </mxCell>
        <mxCell id="ZcTkTLIty2KIgGoeOGZj-9" style="edgeStyle=orthogonalEdgeStyle;rounded=0;orthogonalLoop=1;jettySize=auto;html=1;entryX=1;entryY=0.5;entryDx=0;entryDy=0;" edge="1" parent="1" source="ZcTkTLIty2KIgGoeOGZj-7" target="ZcTkTLIty2KIgGoeOGZj-3">
          <mxGeometry relative="1" as="geometry" />
        </mxCell>
        <mxCell id="ZcTkTLIty2KIgGoeOGZj-7" value="" style="image;sketch=0;aspect=fixed;html=1;points=[];align=center;fontSize=12;image=img/lib/mscae/Docker.svg;" vertex="1" parent="1">
          <mxGeometry x="455" y="784" width="50" height="41" as="geometry" />
        </mxCell>
        <mxCell id="ZcTkTLIty2KIgGoeOGZj-10" style="edgeStyle=orthogonalEdgeStyle;rounded=0;orthogonalLoop=1;jettySize=auto;html=1;entryX=1;entryY=0.5;entryDx=0;entryDy=0;" edge="1" parent="1" source="ZcTkTLIty2KIgGoeOGZj-8" target="ZcTkTLIty2KIgGoeOGZj-3">
          <mxGeometry relative="1" as="geometry" />
        </mxCell>
        <mxCell id="ZcTkTLIty2KIgGoeOGZj-8" value="" style="image;sketch=0;aspect=fixed;html=1;points=[];align=center;fontSize=12;image=img/lib/mscae/Docker.svg;" vertex="1" parent="1">
          <mxGeometry x="455" y="911" width="50" height="41" as="geometry" />
        </mxCell>
        <mxCell id="ZcTkTLIty2KIgGoeOGZj-11" value="" style="rounded=0;whiteSpace=wrap;html=1;" vertex="1" parent="1">
          <mxGeometry x="-140" y="420" width="400" height="220" as="geometry" />
        </mxCell>
        <mxCell id="ZcTkTLIty2KIgGoeOGZj-12" value="&lt;b&gt;172.17.0.2&lt;/b&gt;" style="ellipse;whiteSpace=wrap;html=1;aspect=fixed;fillColor=#dae8fc;strokeColor=#6c8ebf;" vertex="1" parent="1">
          <mxGeometry x="90" y="460" width="80" height="80" as="geometry" />
        </mxCell>
        <mxCell id="ZcTkTLIty2KIgGoeOGZj-14" style="edgeStyle=orthogonalEdgeStyle;rounded=0;orthogonalLoop=1;jettySize=auto;html=1;" edge="1" parent="1" source="ZcTkTLIty2KIgGoeOGZj-13" target="ZcTkTLIty2KIgGoeOGZj-12">
          <mxGeometry relative="1" as="geometry" />
        </mxCell>
        <mxCell id="ZcTkTLIty2KIgGoeOGZj-15" style="edgeStyle=orthogonalEdgeStyle;rounded=0;orthogonalLoop=1;jettySize=auto;html=1;" edge="1" parent="1" source="ZcTkTLIty2KIgGoeOGZj-13" target="DKwnddO4yJNAFo_Fo-A2-16">
          <mxGeometry relative="1" as="geometry" />
        </mxCell>
        <mxCell id="ZcTkTLIty2KIgGoeOGZj-13" value="" style="fontColor=#0066CC;verticalAlign=top;verticalLabelPosition=bottom;labelPosition=center;align=center;html=1;outlineConnect=0;fillColor=#CCCCCC;strokeColor=#6881B3;gradientColor=none;gradientDirection=north;strokeWidth=2;shape=mxgraph.networks.wireless_modem;" vertex="1" parent="1">
          <mxGeometry x="227.78" y="290" width="100" height="80" as="geometry" />
        </mxCell>
      </root>
    </mxGraphModel>
  </diagram>
</mxfile>
